<svg width="24" height="24" viewBox="0 0 24 24" fill="none" xmlns="http://www.w3.org/2000/svg">
  <path d="M12 15.5a3.5 3.5 0 1 0 0-7 3.5 3.5 0 0 0 0 7Z" fill="currentColor"/>
  <path d="M4.5 12c0-.5.04-.99.12-1.46l-1.92-1.48 2-3.46 2.3.66c.67-.52 1.41-.93 2.22-1.22l.33-2.37h4l.33 2.37c.81.29 1.55.7 2.22 1.22l2.3-.66 2 3.46-1.92 1.48c.08.47.12.96.12 1.46s-.04.99-.12 1.46l1.92 1.48-2 3.46-2.3-.66a7.49 7.49 0 0 1-2.22 1.22l-.33 2.37h-4l-.33-2.37a7.49 7.49 0 0 1-2.22-1.22l-2.3.66-2-3.46 1.92-1.48c-.08-.47-.12-.96-.12-1.46Z" stroke="currentColor" stroke-width="1.5" stroke-linecap="round" stroke-linejoin="round"/>
</svg>
